#!OML:ASF F:\VICON\USERDATA\INSTALL\rory3\rory3.ASF
:FULLY-SPECIFIED
:DEGREES
406
root 0.963163 17.4849 45.8812 -1.05133 1.18663 3.12148
lowerback 9.3673 -1.94184 -5.07227
upperback 0.379291 -3.06484 1.2085
thorax -4.52518 -1.3989 4.5139
lowerneck -16.2585 -2.34012 -3.54795
upperneck 23.0755 -2.54785 0.84541
head 10.0999 -1.3945 0.55006
rclavicle 7.9663e-014 -9.14409e-015
rhumerus -34.0263 -17.8043 -77.4389
rradius 28.0512
rwrist 3.86676
rhand -16.0528 23.0382
rfingers 7.12502
rthumb 10.1493 -6.69697
lclavicle 7.9663e-014 -9.14409e-015
lhumerus -22.1424 -6.58289 78.5817
lradius 35.6716
lwrist 9.36332
lhand -29.9906 19.6392
lfingers 7.12502
lthumb -3.30839 49.5933
rfemur -31.0309 1.0177 19.5674
rtibia 21.4055
rfoot -11.3542 -8.71174
rtoes -7.9403
lfemur 18.0961 -2.93994 -28.3271
ltibia 13.4788
lfoot -15.7426 -8.37109
ltoes -3.83791
407
root 0.921388 17.4572 46.1003 -1.19649 0.728086 2.53195
lowerback 9.25077 -1.75413 -4.91585
upperback 0.706778 -2.77385 1.47585
thorax -4.1431 -1.27574 4.65603
lowerneck -17.5214 -2.65657 -3.97631
upperneck 23.4737 -2.92633 1.25321
head 10.5088 -1.55269 0.699147
rclavicle -3.19546e-014 1.43125e-014
rhumerus -33.7493 -18.317 -77.3303
rradius 27.8232
rwrist 4.19538
rhand -16.6186 23.3053
rfingers 7.12502
rthumb 9.60333 -6.45587
lclavicle -3.19546e-014 1.43125e-014
lhumerus -21.5014 -6.59732 78.6124
lradius 35.5724
lwrist 9.67609
lhand -29.7695 19.352
lfingers 7.12502
lthumb -3.09489 49.3092
rfemur -30.9439 2.14831 20.4929
rtibia 22.7032
rfoot -10.8222 -8.85918
rtoes -9.0394
lfemur 18.4544 -2.84535 -27.58
ltibia 14.5086
lfoot -15.7154 -8.36863
ltoes -8.26646
408
root 0.894391 17.4423 46.3235 -1.24382 0.668037 2.08744
lowerback 8.9017 -1.78214 -4.69181
upperback 0.650348 -2.76597 1.6472
thorax -4.0098 -1.27808 4.69332
lowerneck -16.3261 -2.71365 -4.56833
upperneck 22.9186 -3.04471 1.84809
head 10.1043 -1.5934 1.00556
rclavicle 3.27995e-015 -1.98785e-015
rhumerus -34.2742 -18.473 -77.0918
rradius 27.4858
rwrist 3.98507
rhand -16.8009 25.4429
rfingers 7.12502
rthumb 9.4275 -4.32625
lclavicle 3.27995e-015 -1.98785e-015
lhumerus -21.9077 -6.49836 78.6371
lradius 35.6975
lwrist 9.62608
lhand -31.1461 18.8179
lfingers 7.12502
lthumb -4.42417 48.7517
rfemur -30.8451 2.54789 21.2551
rtibia 24.0693
rfoot -10.7662 -8.19427
rtoes -9.81936
lfemur 18.6997 -2.9924 -26.986
ltibia 15.4139
lfoot -15.1315 -8.97569
ltoes -8.96072
409
root 0.869736 17.4439 46.5498 -1.22514 0.806708 1.89383
lowerback 8.76061 -1.79653 -4.57894
upperback 0.451362 -2.76678 1.74131
thorax -4.13955 -1.2716 4.72791
lowerneck -15.9112 -2.59466 -4.21351
upperneck 23.1955 -2.82009 1.15248
head 10.1009 -1.54501 0.735847
rclavicle 3.2054e-014 -1.82882e-014
rhumerus -34.8209 -18.8976 -76.5984
rradius 26.9341
rwrist 4.31392
rhand -16.3707 26.8057
rfingers 7.12502
rthumb 9.84249 -2.94422
lclavicle 3.2054e-014 -1.82882e-014
lhumerus -22.3371 -6.52545 78.7915
lradius 35.7691
lwrist 9.48522
lhand -31.742 18.5523
lfingers 7.12502
lthumb -4.99966 48.4733
rfemur -30.6853 2.89767 21.5985
rtibia 25.1544
rfoot -10.3534 -7.42568
rtoes -6.95823
lfemur 18.746 -3.11418 -26.6211
ltibia 16.5388
lfoot -14.271 -9.67838
ltoes -10.0368
410
root 0.832656 17.4614 46.7814 -1.25225 0.819995 1.18663
lowerback 8.85421 -1.86666 -4.27328
upperback 0.449024 -2.81912 2.06665
thorax -4.18653 -1.29935 4.90762
lowerneck -16.6604 -2.41171 -3.79846
upperneck 23.67 -2.51255 0.640663
head 10.393 -1.42732 0.51837
rclavicle -1.86858e-014 -2.78299e-015
rhumerus -34.8006 -19.1595 -76.3782
rradius 26.422
rwrist 5.11228
rhand -16.0635 26.2398
rfingers 7.12502
rthumb 10.1389 -3.49587
lclavicle -1.86858e-014 -2.78299e-015
lhumerus -22.2377 -6.28416 78.8032
lradius 35.5815
lwrist 9.48322
lhand -31.543 18.9519
lfingers 7.12502
lthumb -4.80748 48.8774
rfemur -30.6522 3.8099 22.361
rtibia 26.3065
rfoot -8.35482 -6.86457
rtoes -12.7589
lfemur 19.0348 -3.14423 -25.6075
ltibia 17.4729
lfoot -13.0766 -10.5224
ltoes -10.4495
411
root 0.824436 17.466 47.0061 -1.19471 1.46585 1.3262
lowerback 8.78292 -2.14884 -4.32034
upperback -0.176558 -3.20599 2.02675
thorax -4.75795 -1.45932 4.95469
lowerneck -14.4799 -2.29891 -4.10098
upperneck 23.0975 -2.45588 0.959134
head 9.77879 -1.39663 0.712083
rclavicle 2.07481e-014 -8.74653e-015
rhumerus -36.2587 -19.0352 -75.733
rradius 26.2625
rwrist 5.77532
rhand -16.2476 24.799
rfingers 7.12502
rthumb 9.96129 -4.94528
lclavicle 2.07481e-014 -8.74653e-015
lhumerus -23.5108 -6.16034 78.9759
lradius 35.5029
lwrist 9.34257
lhand -32.343 18.8636
lfingers 7.12502
lthumb -5.57988 48.7701
rfemur -30.8899 4.00611 21.8174
rtibia 27.4421
rfoot -7.43577 -6.13128
rtoes -11.3288
lfemur 19.1278 -3.71753 -25.6576
ltibia 18.5669
lfoot -12.0631 -11.3414
ltoes -12.8618
412
root 0.811705 17.4768 47.2381 -1.31059 1.85717 1.24434
lowerback 8.87946 -2.2727 -4.25252
upperback 0.257672 -3.35892 2.10629
thorax -4.338 -1.55851 5.00621
lowerneck -16.3181 -2.05065 -3.55
upperneck 23.7285 -1.99576 0.286562
head 10.329 -1.21202 0.425663
rclavicle -5.6927e-014 9.93923e-015
rhumerus -35.3825 -19.8787 -75.6452
rradius 25.7561
rwrist 6.64004
rhand -16.3137 25.2219
rfingers 7.12502
rthumb 9.89755 -4.52543
lclavicle -5.6927e-014 9.93923e-015
lhumerus -22.5012 -5.64165 79.0523
lradius 35.1278
lwrist 9.468
lhand -32.5659 18.8603
lfingers 7.12502
lthumb -5.79515 48.761
rfemur -30.689 4.02606 21.752
rtibia 28.2536
rfoot -6.71938 -5.49862
rtoes -7.90844
lfemur 18.967 -4.21581 -25.5121
ltibia 20.2735
lfoot -11.0059 -12.2226
ltoes -14.9553
413
root 0.794645 17.4871 47.4688 -1.34362 1.95382 1.03254
lowerback 8.58458 -2.30428 -4.00301
upperback 0.145658 -3.36672 2.10644
thorax -4.30314 -1.5666 4.85316
lowerneck -15.7514 -2.12019 -3.51287
upperneck 23.6878 -2.13086 0.291783
head 10.208 -1.27156 0.408333
rclavicle 2.36057e-014 -1.55052e-014
rhumerus -35.9496 -20.4634 -75.2443
rradius 25.2677
rwrist 6.84686
rhand -16.0865 27.2655
rfingers 7.12502
rthumb 10.1167 -2.47131
lclavicle 2.36057e-014 -1.55052e-014
lhumerus -22.7861 -5.41212 79.1728
lradius 34.6997
lwrist 9.44997
lhand -31.8038 18.6253
lfingers 7.12502
lthumb -5.05933 48.5449
rfemur -30.6551 4.21469 21.9851
rtibia 29.2674
rfoot -5.8716 -4.74651
rtoes -5.63539
lfemur 18.6006 -4.55524 -25.192
ltibia 22.1031
lfoot -9.5159 -13.2675
ltoes -16.2979
414
root 0.771791 17.5427 47.7039 -1.43616 1.84135 0.616671
lowerback 7.94879 -2.29568 -3.72774
upperback 0.324269 -3.30142 2.26224
thorax -3.77345 -1.55836 4.81055
lowerneck -15.429 -2.23541 -3.78631
upperneck 23.4444 -2.30193 0.556673
head 10.0696 -1.34273 0.528502
rclavicle 3.18055e-015 3.57812e-015
rhumerus -35.8732 -20.697 -75.1059
rradius 24.6909
rwrist 6.61532
rhand -16.6104 26.5133
rfingers 7.12502
rthumb 9.61126 -3.24744
lclavicle 3.18055e-015 3.57812e-015
lhumerus -22.8023 -4.88652 79.3274
lradius 34.4195
lwrist 9.03758
lhand -32.4142 19.136
lfingers 7.12502
lthumb -5.64867 49.0407
rfemur -30.4377 4.62791 22.5092
rtibia 30.1955
rfoot -4.97379 -4.55409
rtoes -0.72713
lfemur 17.2973 -4.12135 -24.4873
ltibia 24.279
lfoot -6.94813 -15.1803
ltoes -15.8744
